<?xml version="1.0" encoding="utf-8"?>
<!-- Generator: Adobe Illustrator 19.2.1, SVG Export Plug-In . SVG Version: 6.00 Build 0)  -->
<svg version="1.1" id="Layer_1" xmlns="http://www.w3.org/2000/svg" xmlns:xlink="http://www.w3.org/1999/xlink" x="0px" y="0px"
	 viewBox="0 0 250 49" style="enable-background:new 0 0 250 49;" xml:space="preserve">
<style type="text/css">
	.st0{fill:#E64825;}
	.st1{fill:#FFFFFF;}
	.st2{enable-background:new    ;}
</style>
<title>support</title>
<path class="st0" d="M6.6,0h236.8c3.7,0,6.6,3,6.6,6.6v35.8c0,3.7-3,6.6-6.6,6.6c0,0,0,0,0,0H6.6C3,49,0,46,0,42.4c0,0,0,0,0,0V6.6
	C0,3,3,0,6.6,0z"/>
<path class="st1" d="M143.8,12.9h0.7c6.4,0.2,11.5,5.6,11.3,12c-0.2,6.2-5.1,11.1-11.3,11.3h-5.7c0-3.9,0-7.8,0-11.7
	c0.1-2.9,2.5-5.3,5.4-5.2c2.9,0.1,5.3,2.5,5.2,5.4c-0.1,2.9-2.5,5.3-5.4,5.2c-0.8,0-1.7-0.2-2.4-0.6c0,1.3,0,2.5,0,3.8
	c1.7,0.5,3.6,0.5,5.3-0.1c4.7-1.5,7.2-6.6,5.6-11.2c-1.5-4.7-6.6-7.2-11.2-5.6c-3.6,1.2-6,4.5-6.1,8.3c0,3.9,0,7.8,0,11.7h-2.8v-12
	c0.1-4,2.3-7.6,5.6-9.6C139.9,13.5,141.8,12.9,143.8,12.9z"/>
<path class="st1" d="M186.5,13.9h1.9c0,1.4,0,2.9,0,4.3h2.8c0,0.6,0,1.3,0,1.9h-2.8c0,3.1,0,6.2,0,9.3h-1.9c0-3.1,0-6.2,0-9.3h-1.1
	c0-0.6,0-1.3,0-1.9h1.1C186.5,16.8,186.4,15.3,186.5,13.9z"/>
<path class="st1" d="M177.5,17.8c3.3-0.7,6.5,1.5,7.2,4.8c0,0.1,0,0.2,0,0.2c0.1,0.6,0.1,1.2,0.1,1.8c0,1.6,0,3.2,0,4.8h-1.9
	c0-0.4,0-0.8,0-1.2c-2.4,2.3-6.3,2.2-8.6-0.2s-2.2-6.3,0.2-8.6C175.3,18.5,176.4,18,177.5,17.8z M178.3,19.5c-2.3,0.2-4,2.3-3.8,4.6
	c0,0.3,0.1,0.5,0.2,0.8c0.2,0.8,0.7,1.5,1.3,2c0.7,0.6,1.6,1,2.6,1c0.8,0,1.6-0.1,2.3-0.5c2-1.2,2.7-3.7,1.6-5.8
	C181.5,20.2,180,19.4,178.3,19.5z"/>
<path class="st1" d="M203.3,17.7c2-0.3,4,0.5,5.3,1.9l-7.9,6.6c1.4,1.9,4,2.3,5.9,0.9c1.3-0.9,1.9-2.5,1.7-4h1.9
	c0.1,1.3-0.2,2.6-0.9,3.8c-0.5,0.9-1.2,1.6-2.1,2.1c-2.9,1.7-6.6,0.8-8.4-2.1c-0.7-1.1-1-2.4-0.9-3.6c0.1-1,0.4-2,1-2.8
	C200,19,201.5,18,203.3,17.7z M200.5,21.5c-0.6,0.9-0.8,2-0.6,3l5.6-4.7c-0.3-0.1-0.7-0.2-1-0.2C202.9,19.4,201.4,20.2,200.5,21.5
	L200.5,21.5z"/>
<path class="st1" d="M216.6,17.7c1.3-0.1,2.6,0.2,3.6,0.9c2.9,1.8,3.7,5.5,1.9,8.4s-5.5,3.7-8.4,1.9c-2.9-1.8-3.7-5.5-1.9-8.4
	c0.5-0.8,1.2-1.5,2-2C214.7,18,215.6,17.7,216.6,17.7z M216.7,19.5c-2.3,0.2-4.1,2.2-3.9,4.5c0.2,2.3,2.2,4.1,4.5,3.9
	c2.3-0.2,4.1-2.2,3.9-4.5c-0.1-1.2-0.7-2.4-1.7-3.1C218.7,19.7,217.7,19.5,216.7,19.5L216.7,19.5z"/>
<path class="st1" d="M226,18.9c1.2-1.1,2.8-1.5,4.3-1.1c1.2,0.3,2.2,1,2.9,1.9c0.6,0.8,1,1.8,1,2.8c0,1.5,0,3,0,4.6v2.2h-1.9
	c0-2.2,0-4.5,0-6.7c0-1.1-0.6-2.1-1.5-2.6c-0.8-0.5-1.8-0.6-2.7-0.3c-1.1,0.4-1.9,1.5-2.1,2.7c0,0.5,0,1,0,1.6c0,1.8,0,3.6,0,5.4
	h-1.9c0-3.7,0-7.4,0-11.1h1.9C226,18.4,226,18.6,226,18.9z"/>
<path class="st1" d="M161.1,20c2.1-2.6,5.9-3.1,8.6-1c2.6,2.1,3.1,5.9,1,8.6c-1.1,1.3-2.6,2.2-4.3,2.3c-1,0.1-2-0.1-2.8-0.6
	c-0.7-0.3-1.3-0.8-1.8-1.3c0,1.9,0,3.8,0,5.7h-1.9c0-3.3,0-6.6,0-9.9C159.8,22.4,160.3,21.1,161.1,20z M165.1,19.6
	c-2.3,0.4-3.8,2.6-3.4,4.9c0.4,2.3,2.6,3.8,4.9,3.4c2.3-0.4,3.8-2.6,3.4-4.9c-0.2-1.2-1-2.3-2-2.9C167.1,19.6,166.1,19.4,165.1,19.6
	L165.1,19.6z"/>
<path class="st1" d="M192,18.2h1.8c0,0.6,0,1.1,0,1.7c1.2-1.1,2.8-1.8,4.4-1.7c0,0.6,0,1.3,0,1.9c-2.3-0.1-4.3,1.7-4.4,4.1
	c0,0,0,0.1,0,0.1c0,1.7,0,3.4,0,5.1H192C192.1,25.6,192,21.9,192,18.2z"/>
<g class="st2">
	<path class="st1" d="M25.4,18.8c-0.6-0.8-1.6-1.4-2.9-1.4c-1.4,0-3,0.8-3,2.6c0,1.8,1.5,2.2,3,2.7c2,0.7,4.1,1.3,4.1,4.1
		c0,2.8-2.3,4-4.6,4c-1.7,0-3.4-0.7-4.4-2.1l1.2-0.9c0.6,1,1.7,1.8,3.2,1.8c1.4,0,3.1-0.9,3.1-2.7c0-2-1.6-2.4-3.4-3
		c-1.9-0.6-3.8-1.4-3.8-3.9c0-2.7,2.4-3.9,4.5-3.9c1.9,0,3.3,0.8,3.9,1.7L25.4,18.8z"/>
	<path class="st1" d="M36.4,30.6c0-0.5-0.1-1.2-0.1-1.6h0c-0.5,1.1-1.9,1.8-3.2,1.8c-2.3,0-3.5-1.5-3.5-3.8v-5.7h1.3v5.1
		c0,1.9,0.6,3.2,2.5,3.2c1.4,0,2.8-1.1,2.8-3.6v-4.7h1.3v7.2c0,0.5,0,1.4,0.1,2H36.4z"/>
	<path class="st1" d="M42.5,35.3h-1.3v-14h1.3v1.6h0.1c0.8-1.2,2.2-1.8,3.5-1.8c2.9,0,4.8,2.1,4.8,4.9c0,2.7-1.9,4.9-4.8,4.9
		c-1.3,0-2.7-0.7-3.5-1.8h-0.1V35.3z M45.9,22.2c-2.1,0-3.6,1.6-3.6,3.7c0,2.1,1.5,3.7,3.6,3.7c2.2,0,3.5-1.7,3.5-3.7
		C49.4,23.9,48.1,22.2,45.9,22.2z"/>
	<path class="st1" d="M55,35.3h-1.3v-14H55v1.6h0.1c0.8-1.2,2.2-1.8,3.5-1.8c2.9,0,4.8,2.1,4.8,4.9c0,2.7-1.9,4.9-4.8,4.9
		c-1.3,0-2.7-0.7-3.5-1.8H55V35.3z M58.4,22.2c-2.1,0-3.6,1.6-3.6,3.7c0,2.1,1.5,3.7,3.6,3.7c2.2,0,3.5-1.7,3.5-3.7
		C61.9,23.9,60.6,22.2,58.4,22.2z"/>
	<path class="st1" d="M70.4,30.8c-2.9,0-4.9-2.1-4.9-4.9c0-2.8,2.1-4.9,4.9-4.9c2.9,0,4.9,2.1,4.9,4.9
		C75.4,28.7,73.3,30.8,70.4,30.8z M70.4,22.2c-2.1,0-3.5,1.7-3.5,3.7c0,2.1,1.4,3.7,3.5,3.7c2.2,0,3.5-1.6,3.5-3.7
		C74,23.9,72.6,22.2,70.4,22.2z"/>
</g>
<g class="st2">
	<path class="st1" d="M78.3,21.3h1.3c0,0.5,0.1,1.2,0.1,1.6h0c0.5-1.1,1.7-1.8,3-1.8c0.3,0,0.6,0,0.9,0.1l-0.2,1.3
		c-0.2-0.1-0.6-0.1-0.9-0.1c-1.4,0-2.7,1-2.7,3.5v4.7h-1.3v-7.2C78.4,22.9,78.4,22,78.3,21.3z"/>
</g>
<g class="st2">
	<path class="st1" d="M89.5,22.4h-2.6v5.4c0,1.4,0.6,1.7,1.4,1.7c0.4,0,0.8-0.1,1.2-0.3l0.1,1.2c-0.5,0.2-1,0.3-1.6,0.3
		c-1,0-2.4-0.4-2.4-2.5v-5.8h-1.9v-1.1h1.9v-2.6h1.3v2.6h2.6V22.4z"/>
	<path class="st1" d="M100.8,30.8c-2.9,0-4.9-2.1-4.9-4.9c0-2.8,2.1-4.9,4.9-4.9c2.9,0,4.9,2.1,4.9,4.9
		C105.7,28.7,103.7,30.8,100.8,30.8z M100.8,22.2c-2.1,0-3.5,1.7-3.5,3.7c0,2.1,1.4,3.7,3.5,3.7c2.2,0,3.5-1.6,3.5-3.7
		C104.3,23.9,102.9,22.2,100.8,22.2z"/>
	<path class="st1" d="M109.8,21.3c0,0.5,0.1,1.2,0.1,1.6h0c0.5-1.1,1.9-1.8,3.2-1.8c2.3,0,3.5,1.5,3.5,3.8v5.7h-1.3v-5.1
		c0-1.9-0.6-3.2-2.5-3.2c-1.4,0-2.8,1.1-2.8,3.6v4.7h-1.3v-7.2c0-0.5,0-1.4-0.1-2H109.8z"/>
</g>
</svg>
