<?xml version="1.0"?>
<svg xmlns="http://www.w3.org/2000/svg" height="512px" viewBox="0 -17 192 192" width="512px"><path d="m160 37.65625c-9.789062 0-21.964844 5.601562-32.207031 11.601562.136719-1.195312.203125-2.398437.207031-3.601562.003906-5.714844-1.53125-11.324219-4.445312-16.242188l18.101562-18.097656-11.3125-11.316406-18.101562 18.101562c-10.015626-5.925781-22.464844-5.925781-32.480469 0l-18.101563-18.101562-11.316406 11.3125 18.097656 18.101562c-2.914062 4.917969-4.449218 10.527344-4.441406 16.242188 0 1.113281.058594 2.222656.171875 3.328125-10.371094-5.890625-22.542969-11.328125-32.171875-11.328125-20.035156 0-32 11.960938-32 32s11.964844 32 32 32c7.609375 0 16.808594-3.398438 25.453125-7.730469-.964844 3.835938-1.453125 7.777344-1.453125 11.730469 0 23.199219 31.585938 47.675781 35.183594 50.390625 2.859375 2.125 6.773437 2.125 9.632812 0 3.597656-2.714844 35.183594-27.191406 35.183594-50.390625 0-4.011719-.503906-8.011719-1.5-11.898438 8.570312 4.414063 17.777344 7.898438 25.5 7.898438 20.035156 0 32-11.960938 32-32s-11.964844-32-32-32zm-64 40c6.488281.101562 12.613281 3.019531 16.773438 8h-33.546876c4.160157-4.980469 10.285157-7.898438 16.773438-8zm16-32c0 8.835938-7.164062 16-16 16s-16-7.164062-16-16 7.164062-16 16-16c8.832031.011719 15.988281 7.167969 16 16zm-96 24c0-11.0625 4.933594-16 16-16 8.4375 0 23.566406 8.261719 35.199219 16-11.628907 7.738281-26.757813 16-35.199219 16-11.066406 0-16-4.933594-16-16zm80 69.730469c-4.9375-4.203125-9.535156-8.792969-13.742188-13.730469h27.484376c-4.207032 4.9375-8.804688 9.527344-13.742188 13.730469zm23.390625-29.730469h-46.78125c-.386719-1.296875-.589844-2.644531-.609375-4 0-1.335938.085938-2.671875.25-4h47.5c.164062 1.328125.246094 2.664062.246094 4-.015625 1.355469-.21875 2.703125-.605469 4zm40.609375-24c-8.417969 0-23.195312-8.269531-34.472656-16 11.277344-7.726562 26.054687-16 34.472656-16 11.066406 0 16 4.9375 16 16 0 11.066406-4.933594 16-16 16zm0 0" fill="#FFFFFF"/></svg>
